# xmcd
#
# Track frame offsets: 
#        150
#        24067
#        52680
#        84157
#
# Disc length: 1524 seconds
#
# Revision: 5
# Processed by: cddbd v1.5.2PL0 Copyright (c) Steve Scherf et al.
# Submitted via: ExactAudioCopy v0.99pb5
#
DISCID=1605f204
DTITLE=Sade - Cherish The Day (Epic 659481 2)
DYEAR=1993
DGENRE=Jazz
TTITLE0=Cherish The Day (Remix Short Version)
TTITLE1=Cherish The Day (Remix Long Version)
TTITLE2=Cherish The Day (Ronin Remix)
TTITLE3=Cherish The Day (Pal Joey Remix)
EXTD=YEAR: 1992
EXTT0=
EXTT1=
EXTT2=
EXTT3=
PLAYORDER=
